HIERARCHY
ROOT hip
{
  OFFSET 0 90.174 2.4664
  CHANNELS 6 Xposition Yposition Zposition Zrotation Xrotation Yrotation
  JOINT abdomen
  {
    OFFSET 0 -1.186 -1.5018
    CHANNELS 6 Xposition Yposition Zposition Zrotation Xrotation Yrotation
    JOINT abdomen2
    {
      OFFSET 0 9.964 0.2134
      CHANNELS 6 Xposition Yposition Zposition Zrotation Xrotation Yrotation
      JOINT chest
      {
        OFFSET 0 13.134 -3.2573
        CHANNELS 6 Xposition Yposition Zposition Zrotation Xrotation Yrotation
        JOINT neck
        {
          OFFSET 0 20.686 -1.6905
          CHANNELS 6 Xposition Yposition Zposition Zrotation Xrotation Yrotation
          JOINT head
          {
            OFFSET 0 7.238 -0.1237
            CHANNELS 6 Xposition Yposition Zposition Zrotation Xrotation Yrotation
            End Site
            {
              OFFSET 0 0 0
            }
          }
        }
        JOINT lCollar
        {
          OFFSET 1.7069 20.075 5.0056
          CHANNELS 6 Xposition Yposition Zposition Zrotation Xrotation Yrotation
          JOINT lShldr
          {
            OFFSET 13.6458 -0.047 -4.849
            CHANNELS 6 Xposition Yposition Zposition Zrotation Xrotation Yrotation
            JOINT lForeArm
            {
              OFFSET 28.3255 -0.9759 2.2888
              CHANNELS 6 Xposition Yposition Zposition Zrotation Xrotation Yrotation
              JOINT lHand
              {
                OFFSET 22.1583 -0.53 10.8316
                CHANNELS 6 Xposition Yposition Zposition Zrotation Xrotation Yrotation
                JOINT lThumb1
                {
                  OFFSET 0.786 0.112 2.5817
                  CHANNELS 6 Xposition Yposition Zposition Zrotation Xrotation Yrotation
                  JOINT lThumb2
                  {
                    OFFSET 0.3601 -0.878 4.2331
                    CHANNELS 6 Xposition Yposition Zposition Zrotation Xrotation Yrotation
                    JOINT lThumb2_End
                    {
                      OFFSET 1.8127 -1.216 2.2227
                      CHANNELS 6 Xposition Yposition Zposition Zrotation Xrotation Yrotation
                      End Site
                      {
                        OFFSET 0.0181 -0.0122 0.0222
                      }
                    }
                  }
                }
                JOINT lCarpal1
                {
                  OFFSET 0.9571 1.114 1.7695
                  CHANNELS 6 Xposition Yposition Zposition Zrotation Xrotation Yrotation
                  JOINT lIndex1
                  {
                    OFFSET 4.1246 0.487 4.1451
                    CHANNELS 6 Xposition Yposition Zposition Zrotation Xrotation Yrotation
                    JOINT lIndex2
                    {
                      OFFSET 3.4052 -1.454 2.7682
                      CHANNELS 6 Xposition Yposition Zposition Zrotation Xrotation Yrotation
                      JOINT lIndex2_End
                      {
                        OFFSET 1.4531 -1.795 1.2713
                        CHANNELS 6 Xposition Yposition Zposition Zrotation Xrotation Yrotation
                        End Site
                        {
                          OFFSET 0.0145 -0.0179 0.0127
                        }
                      }
                    }
                  }
                  JOINT lMid1
                  {
                    OFFSET 5.6954 0.21 2.1184
                    CHANNELS 6 Xposition Yposition Zposition Zrotation Xrotation Yrotation
                    JOINT lMid2
                    {
                      OFFSET 3.9766 -1.54 2.3863
                      CHANNELS 6 Xposition Yposition Zposition Zrotation Xrotation Yrotation
                      JOINT lMid2_End
                      {
                        OFFSET 1.4042 -1.926 1.125
                        CHANNELS 6 Xposition Yposition Zposition Zrotation Xrotation Yrotation
                        End Site
                        {
                          OFFSET 0.014 -0.0193 0.0113
                        }
                      }
                    }
                  }
                }
                JOINT lCarpal2
                {
                  OFFSET 2.0956 0.66 -0.3894
                  CHANNELS 6 Xposition Yposition Zposition Zrotation Xrotation Yrotation
                  JOINT lRing1
                  {
                    OFFSET 5.0395 -0.09 2.4971
                    CHANNELS 6 Xposition Yposition Zposition Zrotation Xrotation Yrotation
                    JOINT lRing2
                    {
                      OFFSET 3.7921 -1.552 1.4806
                      CHANNELS 6 Xposition Yposition Zposition Zrotation Xrotation Yrotation
                      JOINT lRing2_End
                      {
                        OFFSET 1.4655 -1.808 0.9609
                        CHANNELS 6 Xposition Yposition Zposition Zrotation Xrotation Yrotation
                        End Site
                        {
                          OFFSET 0.0147 -0.0181 0.0096
                        }
                      }
                    }
                  }
                  JOINT lPinky1
                  {
                    OFFSET 4.9141 -1.269 0.3591
                    CHANNELS 6 Xposition Yposition Zposition Zrotation Xrotation Yrotation
                    JOINT lPinky2
                    {
                      OFFSET 3.1477 -1.685 0.8462
                      CHANNELS 6 Xposition Yposition Zposition Zrotation Xrotation Yrotation
                      JOINT lPinky2_End
                      {
                        OFFSET 0.8055 -1.585 0.7955
                        CHANNELS 6 Xposition Yposition Zposition Zrotation Xrotation Yrotation
                        End Site
                        {
                          OFFSET 0.0081 -0.0158 0.008
                        }
                      }
                    }
                  }
                }
              }
            }
          }
        }
        JOINT rCollar
        {
          OFFSET -1.7069 20.075 5.0056
          CHANNELS 6 Xposition Yposition Zposition Zrotation Xrotation Yrotation
          JOINT rShldr
          {
            OFFSET -13.6458 -0.047 -4.849
            CHANNELS 6 Xposition Yposition Zposition Zrotation Xrotation Yrotation
            JOINT rForeArm
            {
              OFFSET -28.3255 -0.9759 2.2888
              CHANNELS 6 Xposition Yposition Zposition Zrotation Xrotation Yrotation
              JOINT rHand
              {
                OFFSET -22.1583 -0.53 10.8316
                CHANNELS 6 Xposition Yposition Zposition Zrotation Xrotation Yrotation
                JOINT rThumb1
                {
                  OFFSET -0.786 0.112 2.5817
                  CHANNELS 6 Xposition Yposition Zposition Zrotation Xrotation Yrotation
                  JOINT rThumb2
                  {
                    OFFSET -0.3601 -0.878 4.2331
                    CHANNELS 6 Xposition Yposition Zposition Zrotation Xrotation Yrotation
                    JOINT rThumb2_End
                    {
                      OFFSET -1.8127 -1.216 2.2227
                      CHANNELS 6 Xposition Yposition Zposition Zrotation Xrotation Yrotation
                      End Site
                      {
                        OFFSET -0.0181 -0.0122 0.0222
                      }
                    }
                  }
                }
                JOINT rCarpal1
                {
                  OFFSET -0.9571 1.114 1.7695
                  CHANNELS 6 Xposition Yposition Zposition Zrotation Xrotation Yrotation
                  JOINT rIndex1
                  {
                    OFFSET -4.1246 0.487 4.1451
                    CHANNELS 6 Xposition Yposition Zposition Zrotation Xrotation Yrotation
                    JOINT rIndex2
                    {
                      OFFSET -3.4052 -1.454 2.7682
                      CHANNELS 6 Xposition Yposition Zposition Zrotation Xrotation Yrotation
                      JOINT rIndex2_End
                      {
                        OFFSET -1.4531 -1.795 1.2713
                        CHANNELS 6 Xposition Yposition Zposition Zrotation Xrotation Yrotation
                        End Site
                        {
                          OFFSET -0.0145 -0.018 0.0127
                        }
                      }
                    }
                  }
                  JOINT rMid1
                  {
                    OFFSET -5.6954 0.21 2.1184
                    CHANNELS 6 Xposition Yposition Zposition Zrotation Xrotation Yrotation
                    JOINT rMid2
                    {
                      OFFSET -3.9766 -1.54 2.3863
                      CHANNELS 6 Xposition Yposition Zposition Zrotation Xrotation Yrotation
                      JOINT rMid2_End
                      {
                        OFFSET -1.4042 -1.926 1.125
                        CHANNELS 6 Xposition Yposition Zposition Zrotation Xrotation Yrotation
                        End Site
                        {
                          OFFSET -0.014 -0.0193 0.0113
                        }
                      }
                    }
                  }
                }
                JOINT rCarpal2
                {
                  OFFSET -2.0956 0.66 -0.3894
                  CHANNELS 6 Xposition Yposition Zposition Zrotation Xrotation Yrotation
                  JOINT rRing1
                  {
                    OFFSET -5.0395 -0.09 2.4971
                    CHANNELS 6 Xposition Yposition Zposition Zrotation Xrotation Yrotation
                    JOINT rRing2
                    {
                      OFFSET -3.7921 -1.552 1.4806
                      CHANNELS 6 Xposition Yposition Zposition Zrotation Xrotation Yrotation
                      JOINT rRing2_End
                      {
                        OFFSET -1.4655 -1.808 0.9609
                        CHANNELS 6 Xposition Yposition Zposition Zrotation Xrotation Yrotation
                        End Site
                        {
                          OFFSET -0.0147 -0.0181 0.0096
                        }
                      }
                    }
                  }
                  JOINT rPinky1
                  {
                    OFFSET -4.9141 -1.269 0.3592
                    CHANNELS 6 Xposition Yposition Zposition Zrotation Xrotation Yrotation
                    JOINT rPinky2
                    {
                      OFFSET -3.1477 -1.685 0.8462
                      CHANNELS 6 Xposition Yposition Zposition Zrotation Xrotation Yrotation
                      JOINT rPinky2_End
                      {
                        OFFSET -0.8055 -1.585 0.7955
                        CHANNELS 6 Xposition Yposition Zposition Zrotation Xrotation Yrotation
                        End Site
                        {
                          OFFSET -0.0081 -0.0158 0.008
                        }
                      }
                    }
                  }
                }
              }
            }
          }
        }
      }
    }
  }
  JOINT lThigh
  {
    OFFSET 8.367 -8.2066 0.5982
    CHANNELS 6 Xposition Yposition Zposition Zrotation Xrotation Yrotation
    JOINT lShin
    {
      OFFSET 2.1923 -43.463 -0.4932
      CHANNELS 6 Xposition Yposition Zposition Zrotation Xrotation Yrotation
      JOINT lFoot
      {
        OFFSET 0.7333 -45.8593 -2.6451
        CHANNELS 6 Xposition Yposition Zposition Zrotation Xrotation Yrotation
        End Site
        {
          OFFSET 2.6618 -4.2699 12.3931
        }
      }
    }
  }
  JOINT rThigh
  {
    OFFSET -8.367 -8.2066 0.5982
    CHANNELS 6 Xposition Yposition Zposition Zrotation Xrotation Yrotation
    JOINT rShin
    {
      OFFSET -2.1923 -43.463 -0.4931
      CHANNELS 6 Xposition Yposition Zposition Zrotation Xrotation Yrotation
      JOINT rFoot
      {
        OFFSET -0.7333 -45.8593 -2.6451
        CHANNELS 6 Xposition Yposition Zposition Zrotation Xrotation Yrotation
        End Site
        {
          OFFSET -2.6618 -4.2699 12.3931
        }
      }
    }
  }
}
MOTION
Frames:	4
Frame Time:	0.0333333
0 90.174 2.4664 0 0 -0 0 -1.186 -1.5018 0 0 -0 0 9.964 0.2134 0 0 -0 0 13.134 -3.2573 0 0 -0 0 20.686 -1.6905 0 0 -0 0 7.238 -0.1237 0 0 -0 1.7069 20.075 5.0056 0 0 -0 13.6458 -0.047 -4.849 1.66051 0.0835086 5.75766 28.3255 -0.9759 2.2888 -0.0175111 0.895433 15.7816 22.1583 -0.53 10.8316 7.95139e-016 -1.98785e-016 -0 0.786 0.112 2.5817 5.46658e-016 -3.97569e-016 -0 0.3601 -0.878 4.2331 5.96354e-016 0 -0 1.8127 -1.216 2.2227 3.97569e-016 1.98785e-016 9.54166e-015 0.9571 1.114 1.7695 1.49089e-016 -3.97569e-016 -0 4.1246 0.487 4.1451 6.4605e-016 0 3.18055e-015 3.4052 -1.454 2.7682 5.96354e-016 0 3.18055e-015 1.4531 -1.795 1.2713 8.94531e-016 -1.98785e-016 6.36111e-015 5.6954 0.21 2.1184 6.4605e-016 0 3.18055e-015 3.9766 -1.54 2.3863 5.96354e-016 0 3.18055e-015 1.4042 -1.926 1.125 8.94531e-016 -1.98785e-016 6.36111e-015 2.0956 0.66 -0.3894 1.49089e-016 -3.97569e-016 -0 5.0395 -0.09 2.4971 6.4605e-016 0 3.18055e-015 3.7921 -1.552 1.4806 5.96354e-016 0 3.18055e-015 1.4655 -1.808 0.9609 8.94531e-016 -1.98785e-016 6.36111e-015 4.9141 -1.269 0.3591 6.4605e-016 0 3.18055e-015 3.1477 -1.685 0.8462 5.96354e-016 0 3.18055e-015 0.8055 -1.585 0.7955 8.94531e-016 -1.98785e-016 6.36111e-015 -1.7069 20.075 5.0056 0 0 -0 -13.6458 -0.047 -4.849 -1.4496 0.0636048 -5.0245 -28.3255 -0.9759 2.2888 -1.74811 1.20616 -16.8394 -22.1583 -0.53 10.8316 -1.19271e-015 1.98785e-016 -3.18055e-015 -0.786 0.112 2.5817 -3.97569e-016 1.98785e-016 -3.18055e-015 -0.3601 -0.878 4.2331 -2.98177e-016 1.98785e-016 -3.18055e-015 -1.8127 -1.216 2.2227 -2.98177e-016 3.97569e-016 -0 -0.9571 1.114 1.7695 4.96962e-016 0 -6.36111e-015 -4.1246 0.487 4.1451 -9.93923e-017 3.97569e-016 -0 -3.4052 -1.454 2.7682 -8.94531e-016 5.96354e-016 -0 -1.4531 -1.795 1.2713 -3.97569e-016 3.97569e-016 -0 -5.6954 0.21 2.1184 -9.93923e-017 3.97569e-016 -0 -3.9766 -1.54 2.3863 -8.94531e-016 5.96354e-016 -0 -1.4042 -1.926 1.125 -3.97569e-016 3.97569e-016 -0 -2.0956 0.66 -0.3894 4.96962e-016 0 -6.36111e-015 -5.0395 -0.09 2.4971 -9.93923e-017 3.97569e-016 -0 -3.7921 -1.552 1.4806 -8.94531e-016 5.96354e-016 -0 -1.4655 -1.808 0.9609 -3.97569e-016 3.97569e-016 -0 -4.9141 -1.269 0.3592 -9.93923e-017 3.97569e-016 -0 -3.1477 -1.685 0.8462 -8.94531e-016 5.96354e-016 -0 -0.8055 -1.585 0.7955 -3.97569e-016 3.97569e-016 -0 8.367 -8.2066 0.5982 -4.66115 -1.03232 0.120763 2.1923 -43.463 -0.4932 0.00990601 1.55097 0.177175 0.7333 -45.8593 -2.6451 4.65196 -0.54114 -0.255042 -8.367 -8.2066 0.5982 4.66115 -1.03222 -0.120763 -2.1923 -43.463 -0.4931 -0.00990459 1.5509 -0.177176 -0.7333 -45.8593 -2.6451 -4.65196 -0.541171 0.255041 
-4.79739 4.66402 41.5513 1.44219 33.9898 179.559 0 -1.186 -1.5018 -0.0383158 10.7325 -0.410734 0 9.964 0.2134 0.0034214 21.4649 -0.836691 -1.33227e-015 13.134 -3.2573 0.00342133 21.4649 -0.836692 0 20.686 -1.6905 5.27788 -5.64349 0.307655 0 7.238 -0.1237 9.43691 -14.7062 1.60435 1.7069 20.075 5.0056 -21.7262 -0.811938 4.3126 13.6458 -0.047 -4.849 -34.6132 1.9152 -11.19 28.3255 -0.9759 2.2888 -41.2213 24.83 5.72781 22.1583 -0.53 10.8316 -39.5176 -51.2109 -22.8116 0.786 0.112 2.5817 2.12599e-006 2.06095e-006 -4.12307e-006 0.3601 -0.878 4.2331 -1.05392e-006 -1.68061e-006 -2.7771e-006 1.8127 -1.216 2.2227 -1.05392e-006 -1.68061e-006 -2.7771e-006 0.9571 1.114 1.7695 6.36111e-015 -3.18055e-015 -1.59028e-015 4.1246 0.487 4.1451 2.12599e-006 2.06095e-006 -4.12307e-006 3.4052 -1.454 2.7682 -1.05392e-006 -1.68061e-006 -2.7771e-006 1.4531 -1.795 1.2713 -1.05392e-006 -1.68061e-006 -2.7771e-006 5.6954 0.21 2.1184 2.12599e-006 2.06095e-006 -4.12307e-006 3.9766 -1.54 2.3863 -1.05392e-006 -1.68061e-006 -2.7771e-006 1.4042 -1.926 1.125 -1.05392e-006 -1.68061e-006 -2.7771e-006 2.0956 0.66 -0.3894 6.36111e-015 -3.18055e-015 -1.59028e-015 5.0395 -0.09 2.4971 2.12599e-006 2.06095e-006 -4.12307e-006 3.7921 -1.552 1.4806 -1.05392e-006 -1.68061e-006 -2.7771e-006 1.4655 -1.808 0.9609 -1.05392e-006 -1.68061e-006 -2.7771e-006 4.9141 -1.269 0.3591 2.12599e-006 2.06095e-006 -4.12307e-006 3.1477 -1.685 0.8462 -1.05392e-006 -1.68061e-006 -2.7771e-006 0.8055 -1.585 0.7955 -1.05392e-006 -1.68061e-006 -2.7771e-006 -1.7069 20.075 5.0056 29.2568 -4.9136 14.0991 -13.6458 -0.047 -4.849 13.6319 -1.67436 -2.70214 -28.3255 -0.9759 2.2888 5.43287 -12.3046 32.2899 -22.1583 -0.53 10.8316 1.65994 19.9264 16.6601 -0.786 0.112 2.5817 -6.36111e-015 0 -3.18055e-015 -0.3601 -0.878 4.2331 3.47515e-007 7.18162e-007 -3.03686e-007 -1.8127 -1.216 2.2227 -9.54166e-015 0 -3.18055e-015 -0.9571 1.114 1.7695 8.82781e-032 1.59028e-015 -3.18055e-015 -4.1246 0.487 4.1451 -1.27222e-014 -3.18055e-015 6.36111e-015 -3.4052 -1.454 2.7682 3.47515e-007 7.18162e-007 -3.03686e-007 -1.4531 -1.795 1.2713 -3.18055e-015 -4.77083e-015 -3.18055e-015 -5.6954 0.21 2.1184 -1.27222e-014 -3.18055e-015 6.36111e-015 -3.9766 -1.54 2.3863 3.47515e-007 7.18162e-007 -3.03686e-007 -1.4042 -1.926 1.125 -3.18055e-015 -4.77083e-015 -3.18055e-015 -2.0956 0.66 -0.3894 8.82781e-032 1.59028e-015 -3.18055e-015 -5.0395 -0.09 2.4971 -1.27222e-014 -3.18055e-015 6.36111e-015 -3.7921 -1.552 1.4806 3.47515e-007 7.18162e-007 -3.03686e-007 -1.4655 -1.808 0.9609 -3.18055e-015 -4.77083e-015 -3.18055e-015 -4.9141 -1.269 0.3592 -1.27222e-014 -3.18055e-015 6.36111e-015 -3.1477 -1.685 0.8462 3.47515e-007 7.18162e-007 -3.03686e-007 -0.8055 -1.585 0.7955 -3.18055e-015 -4.77083e-015 -3.18055e-015 8.367 -8.2066 0.5982 113.586 -45.9533 128.538 2.1923 -43.463 -0.4932 -136.14 61.248 151.503 0.7333 -45.8593 -2.6451 -6.73703 46.4708 -10.3384 -8.367 -8.2066 0.5982 -125.386 -44.2872 -125.574 -2.1923 -43.463 -0.4931 157.617 59.5417 -166.617 -0.7333 -45.8593 -2.6451 -3.30506 16.5761 4.93088 
-4.79736 4.66434 41.5507 1.44185 33.9842 179.559 -8.88178e-016 -1.186 -1.5018 -0.0383137 10.7325 -0.410734 8.88178e-016 9.964 0.2134 0.00342103 21.4649 -0.836691 -4.44089e-016 13.134 -3.2573 0.00342206 21.4649 -0.836691 -8.88178e-016 20.686 -1.6905 5.47022 -5.49655 0.404941 0 7.238 -0.1237 9.46495 -14.7658 1.66178 1.7069 20.075 5.0056 -21.7262 -0.811951 4.31259 13.6458 -0.047 -4.849 -34.6131 1.91521 -11.19 28.3255 -0.9759 2.2888 -41.2213 24.83 5.7278 22.1583 -0.53 10.8316 -39.5176 -51.2109 -22.8117 0.786 0.112 2.5817 6.58784e-007 1.05038e-006 1.73565e-006 0.3601 -0.878 4.2331 1.05405e-006 1.68062e-006 2.77704e-006 1.8127 -1.216 2.2227 2.48154e-007 -5.55409e-006 3.36123e-006 0.9571 1.114 1.7695 3.18055e-015 -3.18055e-015 4.77083e-015 4.1246 0.487 4.1451 6.58784e-007 1.05038e-006 1.73565e-006 3.4052 -1.454 2.7682 1.05405e-006 1.68062e-006 2.77704e-006 1.4531 -1.795 1.2713 2.48154e-007 -5.55409e-006 3.36123e-006 5.6954 0.21 2.1184 6.58784e-007 1.05038e-006 1.73565e-006 3.9766 -1.54 2.3863 1.05405e-006 1.68062e-006 2.77704e-006 1.4042 -1.926 1.125 2.48154e-007 -5.55409e-006 3.36123e-006 2.0956 0.66 -0.3894 3.18055e-015 -3.18055e-015 4.77083e-015 5.0395 -0.09 2.4971 6.58784e-007 1.05038e-006 1.73565e-006 3.7921 -1.552 1.4806 1.05405e-006 1.68062e-006 2.77704e-006 1.4655 -1.808 0.9609 2.48154e-007 -5.55409e-006 3.36123e-006 4.9141 -1.269 0.3591 6.58784e-007 1.05038e-006 1.73565e-006 3.1477 -1.685 0.8462 1.05405e-006 1.68062e-006 2.77704e-006 0.8055 -1.585 0.7955 2.48154e-007 -5.55409e-006 3.36123e-006 -1.7069 20.075 5.0056 29.2568 -4.91361 14.0992 -13.6458 -0.047 -4.849 13.6235 -1.65813 -3.04791 -28.3255 -0.9759 2.2888 5.43286 -12.3046 32.2899 -22.1583 -0.53 10.8316 1.65992 19.9264 16.6601 -0.786 0.112 2.5817 3.45375e-007 7.19082e-007 -3.03998e-007 -0.3601 -0.878 4.2331 1.3815e-006 2.87633e-006 -1.21599e-006 -1.8127 -1.216 2.2227 -9.54166e-015 -6.36111e-015 9.54166e-015 -0.9571 1.114 1.7695 4.77083e-015 -1.59028e-015 -3.18055e-015 -4.1246 0.487 4.1451 3.45375e-007 7.19082e-007 -3.03998e-007 -3.4052 -1.454 2.7682 1.3815e-006 2.87633e-006 -1.21599e-006 -1.4531 -1.795 1.2713 -4.77083e-015 -4.77083e-015 3.18055e-015 -5.6954 0.21 2.1184 3.45375e-007 7.19082e-007 -3.03998e-007 -3.9766 -1.54 2.3863 1.3815e-006 2.87633e-006 -1.21599e-006 -1.4042 -1.926 1.125 -4.77083e-015 -4.77083e-015 3.18055e-015 -2.0956 0.66 -0.3894 4.77083e-015 -1.59028e-015 -3.18055e-015 -5.0395 -0.09 2.4971 3.45375e-007 7.19082e-007 -3.03998e-007 -3.7921 -1.552 1.4806 1.3815e-006 2.87633e-006 -1.21599e-006 -1.4655 -1.808 0.9609 -4.77083e-015 -4.77083e-015 3.18055e-015 -4.9141 -1.269 0.3592 3.45375e-007 7.19082e-007 -3.03998e-007 -3.1477 -1.685 0.8462 1.3815e-006 2.87633e-006 -1.21599e-006 -0.8055 -1.585 0.7955 -4.77083e-015 -4.77083e-015 3.18055e-015 8.367 -8.2066 0.5982 113.586 -45.9534 128.538 2.1923 -43.463 -0.4932 -136.139 61.2482 151.502 0.7333 -45.8593 -2.6451 -6.73704 46.4708 -10.3384 -8.367 -8.2066 0.5982 -125.386 -44.2871 -125.574 -2.1923 -43.463 -0.4931 157.617 59.5417 -166.617 -0.7333 -45.8593 -2.6451 -3.30511 16.5762 4.93087 
-4.79736 4.66434 41.5507 1.44185 33.9842 179.559 -8.88178e-016 -1.186 -1.5018 -0.0383143 10.7325 -0.410734 -8.88178e-016 9.964 0.2134 0.00342106 21.4649 -0.836691 -4.44089e-016 13.134 -3.2573 0.00342184 21.4649 -0.836691 4.44089e-016 20.686 -1.6905 5.66233 -5.34936 0.501747 -1.77636e-015 7.238 -0.1237 9.49306 -14.8254 1.71926 1.7069 20.075 5.0056 -21.7262 -0.81195 4.31259 13.6458 -0.047 -4.849 -34.6132 1.9152 -11.1901 28.3255 -0.9759 2.2888 -41.2213 24.83 5.7278 22.1583 -0.53 10.8316 -39.5176 -51.2109 -22.8116 0.786 0.112 2.5817 1.59028e-015 -1.27222e-014 3.18055e-015 0.3601 -0.878 4.2331 -5.27027e-007 -8.40308e-007 -1.38852e-006 1.8127 -1.216 2.2227 1.59028e-015 -3.18055e-015 -1.59028e-015 0.9571 1.114 1.7695 -3.18055e-015 -9.54166e-015 -0 4.1246 0.487 4.1451 7.95139e-015 -6.36111e-015 4.77083e-015 3.4052 -1.454 2.7682 -5.27027e-007 -8.40308e-007 -1.38852e-006 1.4531 -1.795 1.2713 5.29669e-031 6.36111e-015 -4.77083e-015 5.6954 0.21 2.1184 7.95139e-015 -6.36111e-015 4.77083e-015 3.9766 -1.54 2.3863 -5.27027e-007 -8.40308e-007 -1.38852e-006 1.4042 -1.926 1.125 5.29669e-031 6.36111e-015 -4.77083e-015 2.0956 0.66 -0.3894 -3.18055e-015 -9.54166e-015 -0 5.0395 -0.09 2.4971 7.95139e-015 -6.36111e-015 4.77083e-015 3.7921 -1.552 1.4806 -5.27027e-007 -8.40308e-007 -1.38852e-006 1.4655 -1.808 0.9609 5.29669e-031 6.36111e-015 -4.77083e-015 4.9141 -1.269 0.3591 7.95139e-015 -6.36111e-015 4.77083e-015 3.1477 -1.685 0.8462 -5.27027e-007 -8.40308e-007 -1.38852e-006 0.8055 -1.585 0.7955 5.29669e-031 6.36111e-015 -4.77083e-015 -1.7069 20.075 5.0056 29.2568 -4.91361 14.0992 -13.6458 -0.047 -4.849 13.615 -1.64184 -3.39394 -28.3255 -0.9759 2.2888 5.43287 -12.3046 32.29 -22.1583 -0.53 10.8316 1.65991 19.9264 16.6601 -0.786 0.112 2.5817 6.86489e-007 1.43999e-006 -6.08578e-007 -0.3601 -0.878 4.2331 1.37298e-006 2.87999e-006 -1.21716e-006 -1.8127 -1.216 2.2227 -3.18055e-015 6.36111e-015 6.36111e-015 -0.9571 1.114 1.7695 4.77083e-015 1.59028e-015 -0 -4.1246 0.487 4.1451 6.86489e-007 1.43999e-006 -6.08578e-007 -3.4052 -1.454 2.7682 1.37298e-006 2.87999e-006 -1.21716e-006 -1.4531 -1.795 1.2713 3.53113e-031 -6.36111e-015 3.18055e-015 -5.6954 0.21 2.1184 6.86489e-007 1.43999e-006 -6.08578e-007 -3.9766 -1.54 2.3863 1.37298e-006 2.87999e-006 -1.21716e-006 -1.4042 -1.926 1.125 3.53113e-031 -6.36111e-015 3.18055e-015 -2.0956 0.66 -0.3894 4.77083e-015 1.59028e-015 -0 -5.0395 -0.09 2.4971 6.86489e-007 1.43999e-006 -6.08578e-007 -3.7921 -1.552 1.4806 1.37298e-006 2.87999e-006 -1.21716e-006 -1.4655 -1.808 0.9609 3.53113e-031 -6.36111e-015 3.18055e-015 -4.9141 -1.269 0.3592 6.86489e-007 1.43999e-006 -6.08578e-007 -3.1477 -1.685 0.8462 1.37298e-006 2.87999e-006 -1.21716e-006 -0.8055 -1.585 0.7955 3.53113e-031 -6.36111e-015 3.18055e-015 8.367 -8.2066 0.5982 113.586 -45.9534 128.538 2.1923 -43.463 -0.4932 -136.139 61.2481 151.502 0.7333 -45.8593 -2.6451 -6.73704 46.4708 -10.3384 -8.367 -8.2066 0.5982 -125.386 -44.2872 -125.574 -2.1923 -43.463 -0.4931 157.617 59.5417 -166.617 -0.7333 -45.8593 -2.6451 -3.30508 16.5762 4.93085 
